<?xml version="1.0" encoding="UTF-8"?>
<svg id="Layer_1" data-name="Layer 1" xmlns="http://www.w3.org/2000/svg" xmlns:xlink="http://www.w3.org/1999/xlink" viewBox="0 0 37 37">
  <defs>
    <style>
      .cls-1 {
        fill: #798fd2;
      }

      .cls-2 {
        stroke: #fff;
        stroke-linecap: round;
        stroke-linejoin: round;
      }

      .cls-2, .cls-3 {
        fill: none;
      }

      .cls-4 {
        clip-path: url(#clippath);
      }
    </style>
    <clipPath id="clippath">
      <rect class="cls-3" x="6" y="5" width="24" height="24"/>
    </clipPath>
  </defs>
  <circle class="cls-1" cx="18.5" cy="18.5" r="18.5"/>
  <g class="cls-4">
    <g>
      <path class="cls-2" d="M21.16,16.81l4.83,1.3c.26,.06,.5,.18,.71,.34,.21,.16,.39,.36,.53,.59,.13,.23,.22,.48,.26,.74,.04,.26,.02,.53-.05,.79-.07,.26-.19,.5-.35,.71-.16,.21-.36,.39-.6,.52s-.49,.21-.75,.25c-.26,.03-.53,.01-.79-.06l-14.49-3.88-1.34-6.57,2.9,.78,1.41,2.45,2.9,.78-.12-7.28,2.9,.78,2.05,7.8Z"/>
      <path class="cls-2" d="M9,26H27"/>
    </g>
  </g>
</svg>