<?xml version="1.0" encoding="UTF-8" standalone="no"?><svg width="39" height="39" viewBox="0 0 39 39" fill="none" xmlns="http://www.w3.org/2000/svg">
<circle cx="19.5" cy="19.5" r="19" stroke="#D9D9D9"/>
<path d="M21.0312 20.375C20.6102 20.375 20.2497 20.2251 19.9498 19.9252C19.6499 19.6253 19.5 19.2648 19.5 18.8438V14.0312C19.5 13.6102 19.6499 13.2497 19.9498 12.9498C20.2497 12.6499 20.6102 12.5 21.0312 12.5H23.2188C23.6398 12.5 24.0003 12.6499 24.3002 12.9498C24.6001 13.2497 24.75 13.6102 24.75 14.0312V18.8438C24.75 19.2648 24.6001 19.6253 24.3002 19.9252C24.0003 20.2251 23.6398 20.375 23.2188 20.375H21.0312ZM20.8125 19.0625H23.4375V13.8125H20.8125V19.0625ZM17.1375 24.75C16.8021 24.75 16.4958 24.6516 16.2188 24.4547C15.9417 24.2578 15.7594 23.9917 15.6719 23.6562L13.375 15.9344V12.5H14.6875V16.0656L16.9744 23.4375H24.75V24.75H17.1375ZM16 27.375V26.0625H24.75V27.375H16Z" fill="#3E5CB8"/>
</svg>
