<?xml version="1.0" encoding="UTF-8" standalone="no"?><svg width="39" height="39" viewBox="0 0 39 39" fill="none" xmlns="http://www.w3.org/2000/svg">
<circle cx="19.5" cy="19.5" r="19" stroke="#D9D9D9"/>
<path d="M13.8563 23.4219C14.775 22.7802 15.6865 22.288 16.5906 21.9453C17.4948 21.6026 18.4646 21.4312 19.5 21.4312C20.5354 21.4312 21.5089 21.6026 22.4203 21.9453C23.3318 22.288 24.2469 22.7802 25.1656 23.4219C25.8073 22.6344 26.263 21.8396 26.5328 21.0375C26.8026 20.2354 26.9375 19.3896 26.9375 18.5C26.9375 16.3854 26.2266 14.6172 24.8047 13.1953C23.3828 11.7734 21.6146 11.0625 19.5 11.0625C17.3854 11.0625 15.6172 11.7734 14.1953 13.1953C12.7734 14.6172 12.0625 16.3854 12.0625 18.5C12.0625 19.3896 12.201 20.2354 12.4781 21.0375C12.7552 21.8396 13.2146 22.6344 13.8563 23.4219ZM19.4959 19.1562C18.6528 19.1562 17.9432 18.8669 17.3672 18.2881C16.7911 17.7094 16.5031 16.9984 16.5031 16.1553C16.5031 15.3122 16.7925 14.6026 17.3713 14.0266C17.95 13.4505 18.6609 13.1625 19.5041 13.1625C20.3472 13.1625 21.0568 13.4519 21.6328 14.0306C22.2089 14.6094 22.4969 15.3203 22.4969 16.1634C22.4969 17.0066 22.2075 17.7161 21.6287 18.2922C21.05 18.8682 20.3391 19.1562 19.4959 19.1562ZM19.5102 27.25C18.3076 27.25 17.174 27.0203 16.1094 26.5609C15.0448 26.1016 14.1151 25.4745 13.3203 24.6797C12.5255 23.8849 11.8984 22.9569 11.4391 21.8957C10.9797 20.8346 10.75 19.7007 10.75 18.4942C10.75 17.2876 10.9797 16.1557 11.4391 15.0984C11.8984 14.0411 12.5255 13.1151 13.3203 12.3203C14.1151 11.5255 15.0431 10.8984 16.1043 10.4391C17.1654 9.97969 18.2993 9.75 19.5058 9.75C20.7124 9.75 21.8443 9.97969 22.9016 10.4391C23.9589 10.8984 24.8849 11.5255 25.6797 12.3203C26.4745 13.1151 27.1016 14.0414 27.5609 15.0991C28.0203 16.1569 28.25 17.2871 28.25 18.4898C28.25 19.6924 28.0203 20.826 27.5609 21.8906C27.1016 22.9552 26.4745 23.8849 25.6797 24.6797C24.8849 25.4745 23.9586 26.1016 22.9009 26.5609C21.8431 27.0203 20.7129 27.25 19.5102 27.25ZM19.5 25.9375C20.3021 25.9375 21.0859 25.8208 21.8516 25.5875C22.6172 25.3542 23.3719 24.9458 24.1156 24.3625C23.3719 23.8375 22.6135 23.4365 21.8406 23.1594C21.0677 22.8823 20.2875 22.7437 19.5 22.7437C18.7125 22.7437 17.9323 22.8823 17.1594 23.1594C16.3865 23.4365 15.6281 23.8375 14.8844 24.3625C15.6281 24.9458 16.3828 25.3542 17.1484 25.5875C17.9141 25.8208 18.6979 25.9375 19.5 25.9375ZM19.5 17.8438C19.9958 17.8438 20.4005 17.687 20.7141 17.3734C21.0276 17.0599 21.1844 16.6552 21.1844 16.1594C21.1844 15.6635 21.0276 15.2589 20.7141 14.9453C20.4005 14.6318 19.9958 14.475 19.5 14.475C19.0042 14.475 18.5995 14.6318 18.2859 14.9453C17.9724 15.2589 17.8156 15.6635 17.8156 16.1594C17.8156 16.6552 17.9724 17.0599 18.2859 17.3734C18.5995 17.687 19.0042 17.8438 19.5 17.8438Z" fill="#3E5CB8"/>
</svg>
