<?xml version="1.0" encoding="UTF-8" standalone="no"?><svg width="29" height="29" viewBox="0 0 29 29" fill="none" xmlns="http://www.w3.org/2000/svg">
<path d="M26.3481 12.1335H25.3748V12.0833H14.4998V16.9167H21.3287C20.3325 19.7303 17.6554 21.75 14.4998 21.75C10.496 21.75 7.24984 18.5038 7.24984 14.5C7.24984 10.4962 10.496 7.25 14.4998 7.25C16.348 7.25 18.0294 7.94721 19.3096 9.08607L22.7274 5.6683C20.5693 3.65703 17.6826 2.41667 14.4998 2.41667C7.82682 2.41667 2.4165 7.82698 2.4165 14.5C2.4165 21.173 7.82682 26.5833 14.4998 26.5833C21.1729 26.5833 26.5832 21.173 26.5832 14.5C26.5832 13.6898 26.4998 12.899 26.3481 12.1335Z" fill="#FFC107"/>
<path d="M3.81006 8.87582L7.78004 11.7873C8.85425 9.12776 11.4558 7.25001 14.5002 7.25001C16.3483 7.25001 18.0297 7.94721 19.31 9.08607L22.7277 5.6683C20.5696 3.65703 17.6829 2.41667 14.5002 2.41667C9.85898 2.41667 5.83402 5.03694 3.81006 8.87582Z" fill="#FF3D00"/>
<path d="M14.4999 26.5833C17.621 26.5833 20.4569 25.3889 22.6011 23.4465L18.8613 20.2819C17.6482 21.2008 16.1402 21.75 14.4999 21.75C11.357 21.75 8.68838 19.746 7.68305 16.9493L3.74268 19.9852C5.74247 23.8984 9.80368 26.5833 14.4999 26.5833Z" fill="#4CAF50"/>
<path d="M26.3483 12.1335H25.375V12.0833H14.5V16.9167H21.3289C20.8504 18.2682 19.981 19.4336 18.8597 20.2825L18.8615 20.2813L22.6013 23.4459C22.3366 23.6863 26.5833 20.5417 26.5833 14.5C26.5833 13.6898 26.5 12.899 26.3483 12.1335Z" fill="#1976D2"/>
</svg>
