<?xml version="1.0" encoding="UTF-8"?>
<svg id="Layer_1" data-name="Layer 1" xmlns="http://www.w3.org/2000/svg" viewBox="0 0 37 37">
  <defs>
    <style>
      .cls-1 {
        fill: #fff;
      }

      .cls-2 {
        fill: #798fd2;
      }
    </style>
  </defs>
  <circle class="cls-2" cx="18.5" cy="18.5" r="18.5"/>
  <path class="cls-1" d="M18.5,17.28c.42,0,.78-.15,1.08-.45,.3-.3,.45-.66,.45-1.08s-.15-.78-.45-1.08c-.3-.3-.66-.45-1.08-.45s-.78,.15-1.08,.45c-.3,.3-.45,.66-.45,1.08s.15,.78,.45,1.08c.3,.3,.66,.45,1.08,.45Zm0,7.24c1.94-1.76,3.37-3.37,4.3-4.8,.93-1.44,1.39-2.7,1.39-3.8,0-1.72-.55-3.12-1.65-4.22-1.1-1.1-2.44-1.64-4.04-1.64s-2.94,.55-4.04,1.64c-1.1,1.1-1.65,2.5-1.65,4.22,0,1.09,.47,2.36,1.42,3.8,.95,1.44,2.37,3.04,4.27,4.8Zm0,1.73c-2.35-2-4.1-3.85-5.26-5.57-1.16-1.71-1.74-3.3-1.74-4.76,0-2.19,.7-3.93,2.11-5.23,1.41-1.3,3.04-1.95,4.89-1.95s3.48,.65,4.89,1.95c1.41,1.3,2.11,3.04,2.11,5.23,0,1.46-.58,3.04-1.74,4.76-1.16,1.71-2.91,3.57-5.26,5.57Z"/>
</svg>