<?xml version="1.0" encoding="UTF-8" standalone="no"?><svg width="330" height="190" viewBox="0 0 330 190" fill="none" xmlns="http://www.w3.org/2000/svg">
<g filter="url(#filter0_d_73_111)">
<path d="M68.3584 72.2554L46.8256 75.1414L47.5368 143.556L33.4722 145.441L32.6519 77.0412L11.01 79.9421L10.873 68.1255L68.2762 60.4313L68.3584 72.2554ZM79.8608 95.8839C80.9083 92.9285 82.1004 90.3607 83.4367 88.1815C84.8045 85.9607 86.2879 84.1876 87.8862 82.862C89.4798 81.5001 91.1914 80.6041 93.0204 80.1737C94.8448 79.7069 96.737 79.7496 98.6975 80.3017L97.9666 93.5128C93.2847 92.2511 89.457 93.2272 86.4831 96.441C83.5456 99.6501 81.62 105.446 80.7059 113.829L81.0279 139.067L67.8356 140.835L67.1011 83.8699L73.9698 82.9493C75.3871 82.7593 76.5237 82.959 77.3792 83.548C78.2713 84.1323 78.8194 85.1886 79.0237 86.7171L79.8608 95.8839ZM119.389 76.9173L120.171 133.821L106.924 135.596L106.142 78.6928L119.389 76.9173ZM120.641 60.1358C120.797 61.3004 120.688 62.426 120.316 63.5132C119.98 64.5953 119.463 65.5723 118.766 66.4436C118.068 67.3151 117.242 68.0553 116.288 68.6649C115.329 69.2379 114.304 69.5976 113.214 69.7438C112.16 69.885 111.113 69.803 110.073 69.4979C109.029 69.1562 108.074 68.6545 107.208 67.9928C106.343 67.3308 105.606 66.5221 104.997 65.5663C104.425 64.6058 104.061 63.5435 103.905 62.379C103.75 61.2144 103.838 60.0728 104.169 58.9543C104.501 57.8355 104.997 56.8431 105.658 55.9765C106.314 55.0736 107.103 54.3381 108.026 53.7697C108.981 53.1604 109.985 52.7851 111.039 52.6438C112.129 52.4976 113.214 52.5928 114.296 52.9296C115.371 53.2298 116.342 53.7111 117.207 54.3728C118.109 55.0298 118.867 55.8545 119.48 56.8464C120.094 57.8385 120.481 58.9347 120.641 60.1358ZM146.07 117.014C147.486 118.195 149.03 118.951 150.702 119.283C152.374 119.614 153.973 119.677 155.5 119.473C157.898 119.151 159.979 118.113 161.742 116.358C163.505 114.603 164.935 112.43 166.031 109.838C167.127 107.246 167.858 104.407 168.222 101.321C168.581 98.1981 168.559 95.1264 168.155 92.106C167.63 88.176 166.586 85.3524 165.025 83.6355C163.495 81.8774 161.586 81.1515 159.296 81.4585C157.806 81.6582 156.366 82.3697 154.976 83.5934C153.586 84.8168 152.301 86.4151 151.122 88.3883C149.938 90.3249 148.889 92.5771 147.974 95.1443C147.096 97.7068 146.406 100.43 145.903 103.312L146.07 117.014ZM144.982 86.0441C147.132 81.6444 149.738 78.0352 152.802 75.2169C155.897 72.3573 159.352 70.6715 163.169 70.1601C165.494 69.8484 167.661 70.0026 169.667 70.6225C171.669 71.2062 173.456 72.2631 175.03 73.7933C176.603 75.3235 177.928 77.3498 179.005 79.8724C180.082 82.395 180.857 85.4215 181.329 88.9514C181.752 92.1172 181.841 95.2724 181.595 98.417C181.35 101.561 180.81 104.579 179.975 107.469C179.141 110.359 178.041 113.062 176.676 115.579C175.347 118.091 173.777 120.32 171.965 122.267C170.154 124.213 168.148 125.816 165.949 127.074C163.786 128.327 161.469 129.119 158.998 129.45C156.454 129.791 154.103 129.643 151.946 129.006C149.826 128.364 147.898 127.363 146.162 126.003L146.396 148.92L133.313 150.673L132.423 75.1145L139.237 74.2011C140.655 74.0111 141.791 74.2107 142.647 74.8C143.539 75.384 144.087 76.4406 144.291 77.9689L144.982 86.0441ZM204.843 109.136C206.259 110.317 207.803 111.073 209.475 111.405C211.147 111.736 212.746 111.8 214.272 111.595C216.671 111.274 218.752 110.236 220.515 108.48C222.278 106.725 223.708 104.552 224.804 101.96C225.9 99.3684 226.63 96.5294 226.995 93.4431C227.354 90.3205 227.332 87.2488 226.928 84.2284C226.403 80.2984 225.359 77.4749 223.798 75.7577C222.268 73.9995 220.358 73.2739 218.069 73.581C216.579 73.7806 215.139 74.4921 213.748 75.7156C212.358 76.9393 211.074 78.5375 209.895 80.5107C208.711 82.4474 207.662 84.6995 206.747 87.2668C205.869 89.8293 205.179 92.5518 204.676 95.4345L204.843 109.136ZM203.755 78.1666C205.904 73.7666 208.511 70.1577 211.575 67.3391C214.67 64.4794 218.125 62.7939 221.941 62.2826C224.267 61.9709 226.433 62.1248 228.44 62.7449C230.441 63.3287 232.229 64.3855 233.802 65.9157C235.376 67.4459 236.701 69.4723 237.778 71.9949C238.855 74.5175 239.63 77.5437 240.101 81.0736C240.525 84.2397 240.613 87.3948 240.368 90.5394C240.123 93.6838 239.582 96.7009 238.748 99.5911C237.914 102.481 236.814 105.185 235.448 107.701C234.12 110.213 232.549 112.442 230.738 114.389C228.926 116.336 226.921 117.938 224.722 119.196C222.559 120.449 220.241 121.241 217.77 121.572C215.226 121.913 212.876 121.765 210.719 121.128C208.598 120.486 206.67 119.486 204.935 118.125L205.168 141.042L192.085 142.795L191.196 67.2369L198.01 66.3235C199.427 66.1335 200.564 66.3332 201.419 66.9222C202.311 67.5065 202.86 68.5628 203.064 70.0913L203.755 78.1666ZM295.748 53.2788L268.347 129.74C267.965 130.754 267.458 131.526 266.826 132.055C266.199 132.621 265.376 132.972 264.359 133.108L254.382 134.445L263.791 110.181L242.761 60.3809L254.046 58.8684C255.027 58.7367 255.788 58.8942 256.328 59.3403C256.9 59.7451 257.323 60.2812 257.597 60.9482L268.348 89.0671C268.96 90.8743 269.48 92.6936 269.91 94.5253C270.184 93.5255 270.459 92.5441 270.738 91.5806C271.047 90.5761 271.357 89.5715 271.666 88.5667L281.577 57.6785C281.841 56.902 282.292 56.2491 282.925 55.7201C283.552 55.1543 284.228 54.8227 284.954 54.7255L295.748 53.2788Z" fill="black"/>
</g>
<path d="M301.757 138.146C303.119 138.61 304.62 139.578 304.862 141.371C305.107 143.165 303.916 144.498 302.731 145.309C301.502 146.147 299.948 146.681 298.655 146.857L290.254 147.999L285.972 160.58C285.766 161.186 285.395 161.723 284.9 162.131C284.405 162.538 283.808 162.8 283.176 162.886L280.03 163.314C279.865 163.336 279.697 163.323 279.537 163.273C279.378 163.224 279.232 163.141 279.108 163.029C278.985 162.917 278.886 162.78 278.82 162.627C278.754 162.473 278.723 162.307 278.729 162.14L279.114 149.309L273.872 149.151L271.28 152.562C271.143 152.744 270.954 152.88 270.739 152.955C270.524 153.029 270.292 153.037 270.073 152.979C269.853 152.921 269.655 152.799 269.504 152.628C269.354 152.458 269.257 152.246 269.227 152.02L267.682 140.628C267.651 140.402 267.687 140.172 267.787 139.968C267.886 139.763 268.044 139.592 268.241 139.478C268.437 139.363 268.663 139.309 268.89 139.323C269.117 139.337 269.335 139.419 269.516 139.557L272.922 142.154L277.934 140.6L274.142 128.336C274.092 128.177 274.078 128.009 274.101 127.843C274.123 127.678 274.181 127.519 274.271 127.378C274.36 127.238 274.479 127.118 274.62 127.028C274.76 126.938 274.919 126.88 275.082 126.858L278.228 126.43C278.864 126.344 279.507 126.436 280.093 126.697C280.679 126.957 281.179 127.376 281.539 127.906L289.019 138.886L297.418 137.743C298.71 137.567 300.352 137.668 301.757 138.146ZM301.015 140.322C299.992 139.971 298.708 139.888 297.726 140.021L288.626 141.26C288.414 141.288 288.2 141.258 288.005 141.171C287.809 141.084 287.642 140.945 287.523 140.769L279.639 129.199C279.521 129.023 279.353 128.884 279.158 128.797C278.963 128.71 278.748 128.68 278.536 128.708L276.735 128.953L280.464 141.019C280.555 141.31 280.525 141.625 280.384 141.894C280.241 142.163 279.999 142.366 279.711 142.456L273.038 144.524C272.863 144.578 272.677 144.59 272.497 144.558C272.316 144.526 272.146 144.452 272 144.34L270.331 143.07L271.13 148.963L272.4 147.289C272.511 147.143 272.654 147.025 272.819 146.946C272.984 146.867 273.166 146.829 273.349 146.835L280.329 147.045C280.481 147.05 280.629 147.084 280.767 147.146C280.904 147.208 281.028 147.297 281.132 147.407C281.234 147.517 281.317 147.646 281.369 147.788C281.424 147.929 281.449 148.08 281.443 148.23L281.064 160.853L282.865 160.608C283.077 160.579 283.275 160.492 283.44 160.356C283.605 160.221 283.728 160.042 283.797 159.84L288.313 146.584C288.381 146.382 288.505 146.203 288.667 146.068C288.832 145.932 289.033 145.845 289.242 145.817L298.345 144.579C299.329 144.445 300.539 144.025 301.433 143.411C302.368 142.774 302.654 142.166 302.588 141.681C302.522 141.196 302.087 140.686 301.015 140.322Z" fill="black"/>
<path d="M16.1406 179.009L266.391 145.966" stroke="black" stroke-width="2"/>
<defs>
<filter id="filter0_d_73_111" x="8.87305" y="52.5774" width="292.875" height="106.096" filterUnits="userSpaceOnUse" color-interpolation-filters="sRGB">
<feFlood flood-opacity="0" result="BackgroundImageFix"/>
<feColorMatrix in="SourceAlpha" type="matrix" values="0 0 0 0 0 0 0 0 0 0 0 0 0 0 0 0 0 0 127 0" result="hardAlpha"/>
<feOffset dx="2" dy="4"/>
<feGaussianBlur stdDeviation="2"/>
<feComposite in2="hardAlpha" operator="out"/>
<feColorMatrix type="matrix" values="0 0 0 0 0 0 0 0 0 0 0 0 0 0 0 0 0 0 0.25 0"/>
<feBlend mode="normal" in2="BackgroundImageFix" result="effect1_dropShadow_73_111"/>
<feBlend mode="normal" in="SourceGraphic" in2="effect1_dropShadow_73_111" result="shape"/>
</filter>
</defs>
</svg>
